Patient4_TMGait_0pt7_01_left_45_EMG.mot
version=1
nRows=16
nColumns=33
inDegrees=no
endheader
time	1LAddLong	2LGlutMax	3LGlutMed	4LIliopsoas	5LSemiMemb	6LBicFemLong	7LRecFem	8LVastMed	9LVastLat	10LGasMed	11LTibAnt	12lTibPost	13LPeroneusLong	14LSol	15LExtDigLong	16LFlexDigLong	17RAddLong	18RGlutMax	19RGlutMed	20RIliopsoas	21RSemiMemb	22RBicFemLong	23RRecFem	24RVastMed	25RVastLat	26RGasMed	27RTibAnt	28RTibPost	29RPeroneusLong	30RSol	31RExtDigLong	32RFlexDigLong
52.19	0.002136	0.67413	-0.000763	-0.012512	0.001526	0.033569	-0.13901	0.006561	0.33386	-0.011444	0.14252	0.012665	0.027924	-0.08606	-0.082245	0.002594	0.066528	-0.26352	-0.93277	-0.016632	0.29404	-0.30441	-0.021667	-0.042419	-0.10361	-0.001984	0.036163	-0.010376	-1.4011	-0.20752	-0.004883	-0.002289
52.191	-0.008392	0.69397	-0.010529	-0.024261	-0.000153	0.021667	-0.21668	0.013428	0.31891	-0.013428	0.24277	0.009155	-0.000458	-0.12558	-0.006561	-0.017395	0.019226	-0.34134	-0.92178	-0.028992	0.23285	-0.071716	-0.025787	-0.1532	0.08194	-0.017242	0.025482	-0.018921	-0.70358	0.017395	-0.001984	-0.006714
52.192	-0.003967	0.70068	0.006561	-0.046234	-0.000763	0.016174	-0.21362	0.017395	0.29678	-0.006866	0.30975	0.011597	-0.045471	-0.090027	0.01297	0.000916	0.027161	-0.23819	-0.75546	0.047455	0.10712	0.17105	-0.055695	-0.30563	0.12848	-0.029449	0.027924	-0.018921	1.2616	0.11688	0.000458	-0.009003
52.193	0.001526	0.63355	0.000153	-0.042114	-0.005493	0.013733	-0.16357	0.022888	0.27237	-0.025482	0.18341	0.010681	-0.026703	-0.057678	0.11353	-0.013275	0.024719	-0.25665	-0.66101	0.14496	-0.12421	0.3746	-0.19608	-0.15991	0.064545	-0.01358	0.013733	-0.008545	0.57022	-0.005035	-0.000916	-0.006409
52.194	0.000763	0.70068	-0.010376	-0.01709	0.003204	0.001373	-0.042725	0.015411	0.29083	-0.029907	0.061035	0.014496	0.028992	-0.098114	0.25131	-0.011902	-0.018616	-0.30838	-0.72586	0.18539	-0.32349	0.18982	-0.22797	0.07431	0.06485	-0.006714	0.00061	-0.020905	0.1387	0.11292	-0.001068	0.004272
52.195	0.002594	0.62317	0.009308	-0.008087	-0.000153	0.004883	0.047302	0.021973	0.28351	-0.032196	-0.14206	0.010071	0.091553	-0.020447	0.25406	-0.001984	-0.038605	-0.44434	-0.69565	0.15839	-0.070648	0.076447	-0.1561	0.233	0.103	-0.033264	-0.005188	-0.026398	-0.54306	0.12878	-0.002441	-0.00473
52.196	0.003815	0.62698	0.013733	-0.02121	-0.005798	0.011444	0.041504	0.024719	0.27283	-0.000763	-0.17364	0.017242	0.071259	0.022278	0.082855	-0.005493	-0.076599	-0.55222	-0.59448	0.083008	-0.06958	0.011749	0.018005	0.25101	-0.016937	-0.052032	-0.18494	-0.027313	-0.54779	-0.23377	0.012207	0.002747
52.197	0.005341	0.61188	0.003967	-0.018921	0.000305	0.016632	0.043793	0.022888	0.27161	0.008087	-0.11902	0.00824	0.048218	0.053711	0.026245	-0.000458	-0.083923	-0.35172	-0.22766	0.020447	-0.044861	0.049286	0.093384	0.28336	0.042725	-0.080719	-0.070648	-0.024872	-0.64804	-0.61874	-0.003357	-0.000916
52.198	0.002747	0.55328	-0.014496	-0.016785	0.005188	0.033264	0.066986	0.015259	0.27725	-0.016632	-0.054932	0.010071	0.063934	0.038605	0.14145	0.001221	-0.08606	-0.21896	0.41138	-0.065613	0.41351	0.13123	0.22842	0.11154	0.031891	-0.096436	0.013733	-0.020447	0.024719	-0.5896	-0.002136	0.001373
52.199	0.001831	0.52414	-0.045013	-0.035095	-0.000458	-0.002136	0.078278	0.014801	0.27512	-0.001373	0.0737	0.011139	0.027618	0.024567	0.21408	0.003815	-0.050964	-0.19089	0.24155	-0.073853	0.345	0.21316	0.42908	-0.009766	0.050354	-0.057983	-0.15656	0.13763	1.5593	-0.1059	-0.000916	-0.003204
52.2	0.003204	0.47318	-0.038452	-0.049591	-0.007629	0.014496	0.091248	0.012207	0.27618	-0.016479	0.15991	0.012512	0.006409	0.05722	0.19257	0.007477	-0.049744	-0.17639	-0.024872	-0.012054	0.22476	0.31448	0.14481	-0.051117	0.19058	0.065002	-0.17899	0.004883	0.50156	-0.0914	-0.003967	-0.004425
52.201	0.001373	0.47485	-0.001221	-0.047607	-0.00061	0.003815	0.11704	0.013275	0.26474	-0.046082	0.22507	0.01236	0.012512	0.040894	0.037231	0.006256	-0.04776	-0.11063	0.35904	-0.006561	0.1944	0.30533	-0.40344	0.065308	0.33768	0.1004	-0.13886	-0.043488	-0.44006	-0.084991	-0.002899	-0.002899
52.202	-0.007172	0.47531	0.016632	-0.027618	-0.002899	0.014954	0.1326	0.005188	0.24857	-0.041199	0.024109	0.005341	0.031281	-0.032196	-0.11963	0	-0.030212	-0.088043	0.57114	-0.021362	0.19928	0.26169	-0.72281	0.27359	0.6807	0.074615	-0.04425	-0.013123	-0.62027	0.49194	-0.003967	-0.005341
52.203	-0.014343	0.4895	-0.012207	-0.002441	-0.002747	0.009155	0.070953	0.004578	0.23697	0.008392	-0.103	0.015259	0.029297	-0.11292	-0.3215	0.001373	0.001984	-0.23895	0.081482	0.027161	0.18112	0.28198	-0.49561	0.18265	0.58136	0.049438	-0.09491	-0.015411	1.5433	0.34882	-0.002594	-0.006714
52.204	-0.013733	0.46936	0.006561	0.045166	-0.010223	0.032654	0.056305	0.005341	0.22705	0.016785	-0.14282	0.004425	0.036316	-0.20828	-0.38757	0.008545	0.018921	-0.17578	-0.86594	-0.02243	0.16052	0.20371	-0.34317	0.038605	0.00061	-0.038605	-0.034485	-0.040436	0.90164	0.24979	-0.00351	-0.00885
52.205	-0.00946	0.50293	0.005951	0.075836	-0.006561	0.030212	0.055084	0.006866	0.22858	0.019073	-0.12741	0.01236	0.063934	-0.19623	-0.32684	0.010529	0.012207	0.090942	-0.70175	-0.039063	0.059662	0.056305	-0.32928	0.06485	-0.59753	-0.069733	0.23987	-0.073395	-0.80673	0.22339	-0.004578	-0.01297
